<?xml version="1.0" encoding="iso-8859-1"?>
<!-- Generator: Adobe Illustrator 20.0.0, SVG Export Plug-In . SVG Version: 6.00 Build 0)  -->
<!DOCTYPE svg PUBLIC "-//W3C//DTD SVG 1.0//EN" "http://www.w3.org/TR/2001/REC-SVG-20010904/DTD/svg10.dtd" [
	<!ENTITY st0 "fill:#76B72A;">
	<!ENTITY st1 "fill:#FFFFFF;">
]>
<svg version="1.0" id="Layer_1" xmlns="http://www.w3.org/2000/svg" xmlns:xlink="http://www.w3.org/1999/xlink" x="0px" y="0px"
	 width="62px" height="44px" viewBox="0 0 62 44" style="enable-background:new 0 0 62 44;" xml:space="preserve">
<path style="&st0;" d="M61.3,8.2c0,4.1-0.6,8.2-1.8,12.4c-1.2,4.2-3.2,8-5.9,11.4c-2.7,3.4-6.3,6.2-10.7,8.3
	c-4.4,2.1-9.8,3.2-16.1,3.2c-8,0-14.4-1.5-19.1-4.6c-4.7-3.1-7-8.1-7-15.1c0-4.8,1.5-8.7,4.5-11.8C8.1,9,12,6.6,16.7,4.8
	c4.7-1.7,9.9-2.9,15.6-3.5C38,0.8,43.6,0.5,49,0.5h12.3V8.2z"/>
<g>
	<path style="&st1;" d="M45,21.8c0-0.3,0-0.6,0.1-1c0.1-0.3,0.2-0.6,0.5-0.9c0.2-0.3,0.5-0.5,0.8-0.6c0.3-0.2,0.8-0.2,1.3-0.2
		c0.6,0,1.1,0.1,1.5,0.4c0.4,0.2,0.5,0.6,0.5,1.2c0,0.4-0.1,0.7-0.3,0.9c-0.2,0.2-0.5,0.4-0.9,0.6c-0.4,0.1-0.8,0.2-1.2,0.3
		c-0.4,0-0.9,0.1-1.3,0.1h-1V21.8z M43.5,25.6c0.2,0.4,0.4,0.7,0.7,1c0.3,0.3,0.7,0.5,1.2,0.7c0.5,0.2,1.1,0.3,1.8,0.3
		c0.7,0,1.3-0.1,2-0.3c0.7-0.2,1.2-0.6,1.8-1l-0.2-0.2l0,0c0,0,0-0.1-0.1-0.1l-0.1-0.1c-0.6-0.6-1.2-0.4-1.5-0.2
		c-0.1,0.1-0.2,0.1-0.3,0.2c-0.2,0.1-0.4,0.2-0.7,0.2c-0.3,0.1-0.6,0.1-0.9,0.1c-0.4,0-0.7-0.1-1-0.2c-0.3-0.1-0.5-0.3-0.7-0.5
		c-0.2-0.2-0.3-0.4-0.4-0.6C45,24.6,45,24.4,45,24.1v-0.4h1.3c0.7,0,1.4-0.1,2-0.2c0.6-0.1,1.2-0.3,1.7-0.6c0.5-0.3,0.8-0.6,1.1-1
		c0.3-0.4,0.4-0.9,0.4-1.5c0-0.5-0.1-0.9-0.3-1.2c-0.2-0.4-0.4-0.6-0.7-0.9c-0.3-0.2-0.6-0.4-1-0.5c-0.4-0.1-1.2-0.2-1.9-0.2
		c-3,0-4.3,2.1-4.3,4v0.8v2C43.3,24.8,43.4,25.2,43.5,25.6"/>
	<path style="&st1;" d="M24.8,23.3c0,0.3,0,0.6-0.1,1c-0.1,0.3-0.2,0.6-0.5,0.9c-0.2,0.3-0.5,0.5-0.8,0.6C23,25.9,22.6,26,22.1,26
		c-0.6,0-1.1-0.1-1.5-0.4c-0.4-0.2-0.5-0.6-0.5-1.2c0-0.4,0.1-0.7,0.3-0.9c0.2-0.2,0.5-0.4,0.9-0.6c0.4-0.1,0.8-0.2,1.2-0.3
		c0.4,0,0.9-0.1,1.3-0.1h1V23.3z M25.5,18.5c-0.3-0.3-0.7-0.5-1.2-0.7c-0.5-0.2-1.1-0.3-1.8-0.3c-0.7,0-1.3,0.1-2,0.3
		c-0.7,0.2-1.2,0.6-1.8,1l0.2,0.2l0,0c0,0,0,0.1,0.1,0.1l0.1,0.1c0.6,0.6,1.2,0.4,1.5,0.2c0.1-0.1,0.2-0.1,0.3-0.2
		c0.2-0.1,0.4-0.2,0.7-0.2c0.3-0.1,0.6-0.1,0.9-0.1c0.4,0,0.7,0.1,1,0.2c0.3,0.1,0.5,0.3,0.7,0.5c0.2,0.2,0.3,0.4,0.4,0.6
		c0.1,0.2,0.1,0.5,0.1,0.7v0.4h-1.3c-0.7,0-1.4,0.1-2,0.2c-0.6,0.1-1.2,0.3-1.7,0.6c-0.5,0.3-0.8,0.6-1.1,1
		c-0.3,0.4-0.4,0.9-0.4,1.5c0,0.5,0.1,0.9,0.3,1.2c0.2,0.4,0.4,0.6,0.7,0.9c0.3,0.2,0.6,0.4,1,0.5c0.4,0.1,1.2,0.2,1.9,0.2
		c3,0,4.3-2.1,4.3-4v-0.8v-2c0-0.4-0.1-0.8-0.2-1.2C26.1,19.1,25.8,18.8,25.5,18.5"/>
	<path style="&st1;" d="M16,18.4c-0.3-0.3-0.7-0.5-1.1-0.6c-0.4-0.1-0.9-0.2-1.3-0.2c-0.7,0-1.4,0.2-1.9,0.5c-0.6,0.3-1,0.8-1.2,1.3
		V19c0-1-0.8-1.2-1.1-1.2H8.7v8.1c0,1.2,0.9,1.3,1.2,1.3h0.6l0-4.9c0-0.5,0.1-1,0.2-1.4c0.1-0.4,0.3-0.7,0.6-1
		c0.2-0.3,0.5-0.4,0.8-0.6c0.3-0.1,0.7-0.2,1-0.2c0.3,0,0.5,0,0.8,0.1c0.3,0.1,0.5,0.2,0.7,0.4c0.2,0.2,0.4,0.4,0.5,0.8
		c0.1,0.3,0.2,0.7,0.2,1.1v4.3c0,1.2,0.9,1.3,1.2,1.3H17v-6.1c0-0.6-0.1-1.2-0.3-1.6C16.6,19.1,16.3,18.7,16,18.4"/>
	<path style="&st1;" d="M40.8,17.8h-0.6l0,4.9c0,0.5-0.1,1-0.2,1.4c-0.1,0.4-0.3,0.7-0.6,1c-0.2,0.3-0.5,0.4-0.8,0.6
		c-0.3,0.1-0.7,0.2-1,0.2c-0.3,0-0.5,0-0.8-0.1c-0.3-0.1-0.5-0.2-0.7-0.4c-0.2-0.2-0.4-0.4-0.5-0.8c-0.1-0.3-0.2-0.7-0.2-1.1v-4.3
		c0-1.2-0.9-1.3-1.2-1.3h-0.6v6.1c0,0.6,0.1,1.2,0.3,1.6c0.2,0.5,0.4,0.8,0.7,1.1c0.3,0.3,0.7,0.5,1.1,0.6c0.4,0.1,0.9,0.2,1.3,0.2
		c0.7,0,1.4-0.2,1.9-0.5c0.6-0.3,1-0.8,1.2-1.3V26c0,1,0.8,1.2,1.1,1.2H42v-8.1C42,17.9,41,17.8,40.8,17.8"/>
	<path style="&st1;" d="M30.9,17.8h-1.3v-1.3c0-1.2-0.9-1.3-1.2-1.3c0,0-0.1,0-0.1,0h-0.5v9.1c0,0.4,0,0.8,0,1.1
		c0,0.4,0.1,0.7,0.3,1c0.2,0.3,0.5,0.6,0.8,0.7c0.4,0.2,0.8,0.3,1.5,0.3h0h0.4c1.2,0,1.3-0.9,1.3-1.2v-0.3h-1.4
		c-0.3,0-0.5-0.1-0.7-0.2c-0.2-0.1-0.3-0.3-0.4-0.5c-0.1-0.2-0.2-0.4-0.2-0.7c0-0.3,0-5.2,0-5.2h2.6V19
		C32.2,18.7,32.1,17.8,30.9,17.8"/>
</g>
</svg>
